<?xml version="1.0" encoding="utf-8"?>
<!-- Generator: Adobe Illustrator 15.1.0, SVG Export Plug-In . SVG Version: 6.00 Build 0)  -->
<!DOCTYPE svg PUBLIC "-//W3C//DTD SVG 1.1//EN" "http://www.w3.org/Graphics/SVG/1.1/DTD/svg11.dtd">
<svg version="1.1" id="Layer_1" xmlns="http://www.w3.org/2000/svg" xmlns:xlink="http://www.w3.org/1999/xlink" x="0px" y="0px"
	 width="200px" height="200px" viewBox="0 0 200 200" enable-background="new 0 0 200 200" xml:space="preserve">
<g>
	<path fill="#FFFFFF" d="M38.57,183.027c-0.24,0-0.438-0.076-0.591-0.229s-0.229-0.354-0.229-0.594V160.83
		c0-0.219,0.076-0.408,0.229-0.576c0.153-0.162,0.351-0.245,0.591-0.245h9.209c2.718,0,4.906,0.632,6.561,1.892
		c1.655,1.261,2.483,3.162,2.483,5.707c0,2.541-0.828,4.412-2.483,5.605c-1.654,1.194-3.843,1.793-6.561,1.793h-3.914v7.199
		c0,0.24-0.082,0.439-0.247,0.594c-0.163,0.152-0.367,0.229-0.608,0.229H38.57L38.57,183.027z M43.769,170.467h3.847
		c0.941,0,1.693-0.242,2.252-0.724c0.559-0.483,0.839-1.218,0.839-2.203c0-0.835-0.241-1.535-0.723-2.104
		c-0.483-0.569-1.273-0.854-2.368-0.854h-3.847V170.467z"/>
	<path fill="#FFFFFF" d="M60.736,163.46c-0.241,0-0.439-0.074-0.592-0.229c-0.154-0.15-0.23-0.347-0.23-0.592v-2.957
		c0-0.22,0.076-0.412,0.23-0.576c0.152-0.164,0.351-0.248,0.592-0.248h3.947c0.217,0,0.41,0.084,0.574,0.248
		s0.246,0.356,0.246,0.576v2.957c0,0.245-0.082,0.44-0.246,0.592c-0.164,0.156-0.357,0.229-0.574,0.229H60.736z M60.768,183.027
		c-0.24,0-0.438-0.076-0.59-0.229c-0.155-0.153-0.231-0.354-0.231-0.594v-15.456c0-0.24,0.076-0.438,0.231-0.59
		c0.152-0.154,0.35-0.232,0.59-0.232h3.881c0.241,0,0.439,0.078,0.593,0.232c0.153,0.152,0.229,0.35,0.229,0.59v15.456
		c0,0.239-0.076,0.44-0.229,0.594c-0.153,0.152-0.352,0.229-0.593,0.229H60.768z"/>
	<path fill="#FFFFFF" d="M77.441,183.355c-2.762,0-4.867-0.656-6.313-1.973c-1.447-1.314-2.238-3.124-2.369-5.425
		c-0.022-0.44-0.033-0.933-0.033-1.479c0-0.551,0.011-1.043,0.033-1.479c0.131-2.306,0.947-4.114,2.45-5.429
		c1.501-1.314,3.579-1.973,6.231-1.973c2.674,0,4.764,0.657,6.265,1.973c1.5,1.313,2.317,3.123,2.45,5.429
		c0.021,0.438,0.032,0.931,0.032,1.479c0,0.547-0.011,1.039-0.032,1.479c-0.133,2.301-0.922,4.11-2.367,5.425
		C82.342,182.699,80.226,183.355,77.441,183.355z M77.441,179.344c0.966,0,1.678-0.293,2.137-0.887
		c0.461-0.59,0.725-1.479,0.791-2.662c0.02-0.328,0.031-0.77,0.031-1.314c0-0.551-0.012-0.988-0.031-1.315
		c-0.066-1.162-0.33-2.046-0.791-2.647c-0.459-0.604-1.171-0.904-2.137-0.904c-0.967,0-1.678,0.302-2.137,0.904
		c-0.463,0.603-0.714,1.485-0.756,2.647c-0.023,0.327-0.033,0.767-0.033,1.315c0,0.547,0.01,0.986,0.033,1.314
		c0.042,1.184,0.293,2.072,0.756,2.662C75.764,179.051,76.475,179.344,77.441,179.344z"/>
	<path fill="#FFFFFF" d="M90.266,183.027c-0.241,0-0.438-0.076-0.592-0.229c-0.154-0.153-0.231-0.354-0.231-0.594v-15.456
		c0-0.24,0.077-0.438,0.231-0.59c0.154-0.154,0.351-0.232,0.592-0.232h3.781c0.241,0,0.445,0.078,0.609,0.232
		c0.165,0.152,0.246,0.35,0.246,0.59v1.253c0.548-0.681,1.283-1.253,2.203-1.713c0.922-0.459,2.006-0.688,3.256-0.688
		c1.25,0,2.368,0.285,3.355,0.854c0.984,0.57,1.761,1.41,2.318,2.518c0.559,1.106,0.838,2.461,0.838,4.063v9.171
		c0,0.239-0.078,0.44-0.229,0.594c-0.152,0.152-0.351,0.229-0.594,0.229h-4.145c-0.239,0-0.438-0.076-0.592-0.229
		c-0.151-0.153-0.229-0.354-0.229-0.594v-8.976c0-1.03-0.244-1.826-0.738-2.388c-0.493-0.559-1.223-0.837-2.188-0.837
		c-0.898,0-1.617,0.278-2.154,0.837c-0.536,0.562-0.807,1.356-0.807,2.388v8.976c0,0.239-0.08,0.44-0.246,0.594
		c-0.163,0.152-0.355,0.229-0.574,0.229H90.266L90.266,183.027z"/>
	<path fill="#FFFFFF" d="M118.48,183.355c-2.588,0-4.648-0.698-6.185-2.104c-1.534-1.402-2.336-3.484-2.399-6.246
		c-0.021-0.396-0.021-0.779,0-1.15c0.088-2.609,0.898-4.639,2.435-6.084c1.532-1.446,3.571-2.172,6.116-2.172
		c1.928,0,3.529,0.385,4.8,1.149c1.271,0.771,2.22,1.815,2.846,3.142c0.624,1.325,0.938,2.823,0.938,4.488v0.791
		c0,0.24-0.078,0.438-0.229,0.594c-0.151,0.15-0.354,0.229-0.594,0.229h-10.524v0.229c0.022,0.965,0.268,1.78,0.727,2.451
		c0.461,0.667,1.139,1.002,2.039,1.002c0.635,0,1.135-0.143,1.496-0.429c0.359-0.286,0.629-0.536,0.805-0.757
		c0.197-0.217,0.357-0.36,0.477-0.426c0.123-0.068,0.314-0.1,0.578-0.1h4.076c0.197,0,0.367,0.064,0.51,0.197
		c0.143,0.13,0.215,0.306,0.215,0.527c-0.023,0.371-0.209,0.819-0.561,1.346c-0.352,0.523-0.861,1.04-1.527,1.546
		c-0.67,0.505-1.508,0.927-2.516,1.269C120.988,183.188,119.816,183.355,118.48,183.355z M115.684,172.734h5.559v-0.064
		c0-1.074-0.24-1.924-0.723-2.549c-0.481-0.626-1.174-0.938-2.071-0.938c-0.878,0-1.558,0.312-2.039,0.938
		c-0.484,0.625-0.726,1.475-0.726,2.549V172.734z"/>
	<path fill="#FFFFFF" d="M138.014,183.355c-2.588,0-4.647-0.698-6.182-2.104c-1.536-1.402-2.337-3.484-2.4-6.246
		c-0.022-0.396-0.022-0.779,0-1.15c0.086-2.609,0.9-4.639,2.435-6.084c1.534-1.446,3.569-2.172,6.114-2.172
		c1.93,0,3.529,0.385,4.802,1.149c1.271,0.771,2.22,1.815,2.844,3.142c0.627,1.325,0.938,2.823,0.938,4.488v0.791
		c0,0.24-0.078,0.438-0.229,0.594c-0.153,0.15-0.353,0.229-0.593,0.229h-10.521v0.229c0.021,0.965,0.262,1.78,0.721,2.451
		c0.463,0.667,1.141,1.002,2.039,1.002c0.637,0,1.137-0.143,1.5-0.429c0.359-0.286,0.627-0.536,0.806-0.757
		c0.196-0.217,0.353-0.36,0.474-0.426c0.121-0.068,0.313-0.1,0.578-0.1h4.075c0.198,0,0.366,0.064,0.511,0.197
		c0.143,0.13,0.215,0.306,0.215,0.527c-0.021,0.371-0.209,0.819-0.561,1.346c-0.352,0.523-0.859,1.04-1.529,1.546
		c-0.668,0.505-1.508,0.927-2.514,1.269C140.523,183.188,139.352,183.355,138.014,183.355z M135.219,172.734h5.557v-0.064
		c0-1.074-0.238-1.924-0.723-2.549c-0.482-0.626-1.174-0.938-2.072-0.938c-0.875,0-1.557,0.312-2.041,0.938
		c-0.479,0.625-0.721,1.475-0.721,2.549V172.734L135.219,172.734z"/>
	<path fill="#FFFFFF" d="M150.477,183.027c-0.24,0-0.438-0.076-0.592-0.229s-0.23-0.354-0.23-0.594v-15.456
		c0-0.217,0.076-0.408,0.23-0.573c0.153-0.165,0.352-0.249,0.592-0.249h3.781c0.242,0,0.443,0.084,0.609,0.249
		c0.164,0.165,0.246,0.356,0.246,0.573v1.316c0.57-0.683,1.268-1.205,2.088-1.578c0.822-0.373,1.75-0.562,2.779-0.562h1.449
		c0.237,0,0.436,0.078,0.59,0.232c0.153,0.151,0.229,0.35,0.229,0.59v3.389c0,0.241-0.076,0.44-0.229,0.593
		c-0.154,0.153-0.353,0.229-0.59,0.229h-3.191c-0.897,0-1.596,0.248-2.09,0.74c-0.492,0.493-0.738,1.188-0.738,2.086v8.419
		c0,0.24-0.082,0.439-0.247,0.594c-0.165,0.152-0.368,0.229-0.608,0.229h-4.078V183.027z"/>
</g>
<path fill="#FFFFFF" d="M130.044,37.358c27.274,16.957,35.667,52.829,18.71,80.121c-2.395,3.865-5.184,7.358-8.268,10.442
	l-0.014-0.017l-20.904-20.901l-20.229-20.23l-19.885,19.885l-6.718,6.718L58.254,76.987l23.455-9.332l4.461,11.228l50.373-20.058
	l-16.691-16.691l-0.063-9.816C123.357,33.663,126.803,35.354,130.044,37.358z"/>
<polygon fill="#E85656" points="136.543,58.825 86.17,78.883 109.908,56.414 98.541,27.854 119.711,19.43 119.787,32.317 
	119.852,42.133 "/>
<polygon fill="#FFFFFF" points="119.568,107.004 99.339,115.066 79.454,106.658 99.339,86.773 "/>
<polygon fill="#E85656" points="109.908,56.414 81.709,67.655 58.254,76.987 49.924,56.084 42.408,37.202 94.078,16.627 
	98.541,27.854 "/>
<path fill="#FFFFFF" d="M58.254,76.987l14.482,36.389l-14.53,14.53l-0.015,0.016c-18.712-18.68-22.83-48.414-8.268-71.837
	L58.254,76.987z"/>
<path fill="#2F415A" d="M131.689,34.694c-2.787-1.723-5.737-3.22-8.781-4.491l-0.066-10.792c-0.002-0.077-0.018-0.148-0.023-0.223
	c-0.01-0.118-0.016-0.237-0.039-0.356c-0.022-0.118-0.063-0.228-0.096-0.341c-0.024-0.072-0.035-0.147-0.063-0.219
	c-0.004-0.012-0.013-0.021-0.017-0.032c-0.049-0.118-0.112-0.226-0.174-0.336c-0.041-0.072-0.074-0.148-0.119-0.217
	c-0.056-0.08-0.123-0.15-0.184-0.225c-0.068-0.083-0.129-0.171-0.204-0.246c-0.057-0.055-0.12-0.1-0.181-0.15
	c-0.092-0.08-0.18-0.164-0.279-0.231c-0.084-0.057-0.178-0.096-0.266-0.145c-0.086-0.047-0.17-0.101-0.26-0.139
	c-0.086-0.038-0.181-0.058-0.271-0.087c-0.104-0.034-0.205-0.073-0.312-0.096c-0.067-0.014-0.141-0.015-0.211-0.024
	c-0.137-0.02-0.271-0.04-0.41-0.042c-0.01,0-0.017-0.003-0.024-0.003c-0.007,0-0.013,0-0.021,0c-0.073,0-0.143,0.017-0.217,0.023
	c-0.121,0.009-0.24,0.015-0.363,0.04c-0.118,0.022-0.229,0.061-0.346,0.098c-0.07,0.023-0.145,0.034-0.215,0.061l-18.255,7.265
	l-3.308-8.315l-0.002-0.001c-0.004-0.012-0.012-0.022-0.018-0.035c-0.159-0.385-0.384-0.725-0.66-1.005
	c-0.858-0.87-2.183-1.191-3.389-0.711L41.25,34.292c-1.607,0.639-2.391,2.46-1.752,4.067l6.947,17.451
	c-14.162,24.132-10.353,54.476,9.531,74.325c3.307,3.307,7.01,6.238,11.005,8.713c10.071,6.262,21.302,9.319,32.444,9.319
	c15.796-0.001,31.413-6.147,43.275-18.032c3.307-3.305,6.237-7.009,8.713-11.005C169.252,90.423,160.406,52.548,131.689,34.694z
	 M116.605,24.036l0.053,8.387c0,0.009,0,0.017,0,0.026l0.063,9.705c0,0.06,0.014,0.116,0.018,0.176
	c0.01,0.142,0.018,0.285,0.046,0.425c0.021,0.103,0.057,0.197,0.086,0.295c0.03,0.095,0.053,0.193,0.092,0.286
	c0.046,0.113,0.11,0.217,0.17,0.324c0.039,0.07,0.072,0.145,0.117,0.212c0.106,0.162,0.231,0.312,0.367,0.45
	c0.008,0.007,0.013,0.018,0.021,0.026l0.002,0.001c0.004,0.004,0.008,0.008,0.012,0.011l13.314,13.315L100.18,69.934l11.88-11.247
	c0.006-0.006,0.012-0.012,0.017-0.018c0.104-0.101,0.192-0.213,0.282-0.326c0.039-0.052,0.088-0.098,0.125-0.151
	c0.004-0.005,0.009-0.009,0.013-0.014c0.021-0.03,0.032-0.065,0.053-0.098c0.035-0.055,0.063-0.113,0.095-0.171
	c0.047-0.084,0.102-0.164,0.139-0.252c0.001-0.001,0.002-0.003,0.002-0.005c0.033-0.073,0.049-0.153,0.074-0.229
	c0.037-0.112,0.082-0.222,0.107-0.336c0-0.002,0.001-0.005,0.001-0.006c0.023-0.104,0.026-0.211,0.039-0.318
	c0.011-0.09,0.029-0.179,0.031-0.269c0.004-0.098-0.013-0.196-0.021-0.294c-0.008-0.105-0.008-0.211-0.023-0.315
	c-0.001-0.006-0.001-0.012-0.001-0.018c-0.013-0.064-0.04-0.127-0.056-0.191c-0.03-0.131-0.063-0.265-0.111-0.393
	c-0.006-0.009-0.006-0.017-0.008-0.026l-10.205-25.651L116.605,24.036z M92.326,20.696l3.295,8.28
	c0.004,0.01,0.005,0.023,0.01,0.035c0.003,0.007,0.009,0.014,0.012,0.021l10.199,25.63L60,72.921L46.476,38.953L92.326,20.696z
	 M49.486,63.446l19.578,49.173l-10.807,10.807C43.43,106.877,40.1,83.355,49.486,63.446z M99.374,111.684l-14.419-6.099
	l14.384-14.384l14.654,14.654L99.374,111.684z M146.093,115.83c-1.671,2.697-3.571,5.24-5.669,7.6l-18.621-18.621
	c-0.004-0.002-0.008-0.008-0.013-0.011l-20.237-20.239c-0.611-0.612-1.412-0.917-2.214-0.917c-0.802,0-1.604,0.306-2.214,0.917
	l-19.85,19.849c-0.004,0.004-0.006,0.007-0.01,0.01l-3.379,3.38l-11.57-29.059l17.637-7.024l3.281,8.26
	c0.002,0.005,0.005,0.011,0.007,0.016l0.02,0.047c0,0.001,0,0.003,0.001,0.004c0.008,0.02,0.023,0.035,0.031,0.055
	c0.1,0.235,0.233,0.456,0.393,0.667c0.02,0.026,0.029,0.06,0.05,0.084c0.005,0.006,0.006,0.013,0.011,0.019
	c0.02,0.023,0.045,0.037,0.064,0.06c0.031,0.035,0.053,0.075,0.086,0.11c0.16,0.169,0.336,0.315,0.522,0.44
	c0.026,0.017,0.055,0.027,0.081,0.044c0.209,0.133,0.43,0.232,0.658,0.312c0.069,0.023,0.138,0.044,0.208,0.063
	c0.255,0.068,0.513,0.113,0.774,0.116c0.01,0,0.02,0.004,0.03,0.004c0.257,0,0.515-0.044,0.771-0.11
	c0.127-0.032,0.256-0.063,0.379-0.11c0.003-0.001,0.006-0.001,0.008-0.003l50.371-20.059c0.004-0.001,0.006-0.003,0.008-0.004
	c0.168-0.066,0.328-0.154,0.484-0.251c0.022-0.015,0.051-0.024,0.072-0.038c0.004-0.003,0.01-0.007,0.014-0.012
	c0.174-0.115,0.33-0.243,0.475-0.387c0.002-0.001,0.002-0.001,0.004-0.003c0.025-0.026,0.042-0.055,0.066-0.081
	c0.115-0.124,0.225-0.251,0.318-0.39c0.057-0.084,0.096-0.173,0.142-0.26c0.05-0.09,0.104-0.178,0.144-0.272
	c0.043-0.099,0.068-0.203,0.098-0.306c0.029-0.092,0.063-0.179,0.084-0.272c0.019-0.101,0.023-0.201,0.035-0.301
	c0.01-0.101,0.027-0.201,0.028-0.303c0-0.107-0.015-0.213-0.024-0.32c-0.01-0.095-0.01-0.188-0.026-0.283
	c-0.031-0.161-0.08-0.315-0.136-0.471c-0.016-0.038-0.019-0.076-0.032-0.115c0-0.001-0.004-0.003-0.004-0.006
	c-0.073-0.184-0.166-0.361-0.275-0.531c-0.006-0.007-0.009-0.018-0.015-0.026c-0.008-0.011-0.016-0.019-0.021-0.029
	c-0.113-0.166-0.238-0.32-0.375-0.459c-0.003-0.001-0.005-0.003-0.005-0.004l-15.782-15.782l-0.021-3.754
	c1.869,0.887,3.691,1.862,5.438,2.942C154.166,56.043,162.109,90.051,146.093,115.83z"/>
</svg>
