<?xml version="1.0" encoding="utf-8"?>
<!-- Generator: Adobe Illustrator 15.1.0, SVG Export Plug-In . SVG Version: 6.00 Build 0)  -->
<!DOCTYPE svg PUBLIC "-//W3C//DTD SVG 1.1//EN" "http://www.w3.org/Graphics/SVG/1.1/DTD/svg11.dtd">
<svg version="1.1" id="Layer_1" xmlns="http://www.w3.org/2000/svg" xmlns:xlink="http://www.w3.org/1999/xlink" x="0px" y="0px"
	 width="200px" height="200px" viewBox="0 0 200 200" enable-background="new 0 0 200 200" xml:space="preserve">
<path fill="#FFFFFF" d="M130.044,37.358c27.274,16.957,35.667,52.829,18.709,80.121c-2.396,3.865-5.183,7.358-8.267,10.442
	l-0.014-0.017l-20.904-20.901l-20.229-20.23l-19.885,19.885l-6.717,6.718L58.253,76.987l23.455-9.332l4.462,11.228l50.372-20.058
	l-16.69-16.691l-0.064-9.816C123.357,33.663,126.802,35.354,130.044,37.358z"/>
<polygon fill="#E85656" points="136.542,58.825 86.17,78.883 109.908,56.414 98.541,27.854 119.71,19.43 119.787,32.317 
	119.852,42.133 "/>
<polygon fill="#FFFFFF" points="119.568,107.004 99.339,115.066 79.454,106.658 99.339,86.773 "/>
<polygon fill="#E85656" points="109.908,56.414 81.708,67.655 58.253,76.987 49.923,56.084 42.408,37.202 94.078,16.627 
	98.541,27.854 "/>
<path fill="#FFFFFF" d="M58.253,76.987l14.483,36.389l-14.531,14.53l-0.015,0.016c-18.711-18.68-22.829-48.414-8.268-71.837
	L58.253,76.987z"/>
<g>
	<path fill="#2F415A" d="M38.571,183.027c-0.241,0-0.438-0.076-0.591-0.229c-0.154-0.153-0.23-0.354-0.23-0.594V160.83
		c0-0.219,0.076-0.408,0.23-0.576c0.154-0.162,0.35-0.245,0.591-0.245h9.208c2.718,0,4.906,0.632,6.561,1.892
		c1.655,1.261,2.483,3.162,2.483,5.707c0,2.541-0.828,4.412-2.483,5.605c-1.654,1.194-3.843,1.793-6.561,1.793h-3.914v7.199
		c0,0.24-0.082,0.439-0.248,0.594c-0.163,0.152-0.367,0.229-0.609,0.229H38.571L38.571,183.027z M43.769,170.467h3.846
		c0.941,0,1.694-0.242,2.252-0.724c0.56-0.483,0.839-1.218,0.839-2.203c0-0.835-0.241-1.535-0.723-2.104
		c-0.483-0.569-1.273-0.854-2.369-0.854h-3.846L43.769,170.467L43.769,170.467z"/>
	<path fill="#2F415A" d="M60.736,163.46c-0.241,0-0.439-0.074-0.592-0.229c-0.154-0.15-0.23-0.347-0.23-0.592v-2.957
		c0-0.22,0.076-0.412,0.23-0.576c0.153-0.164,0.351-0.248,0.592-0.248h3.947c0.218,0,0.411,0.084,0.574,0.248
		c0.165,0.164,0.247,0.356,0.247,0.576v2.957c0,0.245-0.082,0.44-0.247,0.592c-0.164,0.156-0.356,0.229-0.574,0.229H60.736z
		 M60.768,183.027c-0.241,0-0.438-0.076-0.591-0.229c-0.155-0.153-0.231-0.354-0.231-0.594v-15.456c0-0.24,0.076-0.438,0.231-0.59
		c0.153-0.154,0.35-0.232,0.591-0.232h3.881c0.241,0,0.438,0.078,0.592,0.232c0.154,0.152,0.23,0.35,0.23,0.59v15.456
		c0,0.239-0.076,0.44-0.23,0.594c-0.154,0.152-0.352,0.229-0.592,0.229H60.768z"/>
	<path fill="#2F415A" d="M77.442,183.355c-2.762,0-4.867-0.656-6.313-1.973c-1.447-1.314-2.237-3.124-2.369-5.425
		c-0.022-0.44-0.033-0.933-0.033-1.479c0-0.551,0.011-1.043,0.033-1.479c0.131-2.306,0.948-4.114,2.45-5.429
		c1.501-1.314,3.579-1.973,6.232-1.973c2.673,0,4.763,0.657,6.264,1.973c1.5,1.313,2.317,3.123,2.451,5.429
		c0.021,0.438,0.032,0.931,0.032,1.479c0,0.547-0.011,1.039-0.032,1.479c-0.134,2.301-0.922,4.11-2.368,5.425
		C82.342,182.699,80.226,183.355,77.442,183.355z M77.442,179.344c0.965,0,1.677-0.293,2.136-0.887
		c0.461-0.59,0.725-1.479,0.792-2.662c0.02-0.328,0.031-0.77,0.031-1.314c0-0.551-0.011-0.988-0.031-1.315
		c-0.066-1.162-0.33-2.046-0.792-2.647c-0.458-0.604-1.17-0.904-2.136-0.904c-0.967,0-1.678,0.302-2.138,0.904
		c-0.462,0.603-0.713,1.485-0.755,2.647c-0.023,0.327-0.034,0.767-0.034,1.315c0,0.547,0.011,0.986,0.034,1.314
		c0.042,1.184,0.293,2.072,0.755,2.662C75.764,179.051,76.475,179.344,77.442,179.344z"/>
	<path fill="#2F415A" d="M90.265,183.027c-0.241,0-0.437-0.076-0.591-0.229c-0.154-0.153-0.232-0.354-0.232-0.594v-15.456
		c0-0.24,0.078-0.438,0.232-0.59c0.154-0.154,0.35-0.232,0.591-0.232h3.782c0.241,0,0.444,0.078,0.608,0.232
		c0.166,0.152,0.247,0.35,0.247,0.59v1.253c0.547-0.681,1.283-1.253,2.203-1.713c0.921-0.459,2.006-0.688,3.256-0.688
		c1.25,0,2.368,0.285,3.354,0.854c0.985,0.57,1.76,1.41,2.318,2.518c0.56,1.106,0.838,2.461,0.838,4.063v9.171
		c0,0.239-0.078,0.44-0.229,0.594c-0.154,0.152-0.351,0.229-0.594,0.229h-4.145c-0.239,0-0.437-0.076-0.59-0.229
		s-0.231-0.354-0.231-0.594v-8.976c0-1.03-0.245-1.826-0.738-2.388c-0.493-0.559-1.223-0.837-2.188-0.837
		c-0.898,0-1.617,0.278-2.153,0.837c-0.537,0.562-0.807,1.356-0.807,2.388v8.976c0,0.239-0.081,0.44-0.246,0.594
		c-0.164,0.152-0.356,0.229-0.575,0.229H90.265L90.265,183.027z"/>
	<path fill="#2F415A" d="M118.48,183.355c-2.588,0-4.647-0.698-6.184-2.104c-1.535-1.402-2.336-3.484-2.4-6.246
		c-0.021-0.396-0.021-0.779,0-1.15c0.088-2.609,0.899-4.639,2.435-6.084c1.532-1.446,3.571-2.172,6.116-2.172
		c1.928,0,3.529,0.385,4.8,1.149c1.271,0.771,2.22,1.815,2.846,3.142c0.624,1.325,0.938,2.823,0.938,4.488v0.791
		c0,0.24-0.078,0.438-0.229,0.594c-0.153,0.15-0.354,0.229-0.593,0.229h-10.525v0.229c0.023,0.965,0.267,1.78,0.726,2.451
		c0.462,0.667,1.139,1.002,2.04,1.002c0.635,0,1.135-0.143,1.496-0.429s0.63-0.536,0.806-0.757c0.197-0.217,0.356-0.36,0.476-0.426
		c0.123-0.068,0.315-0.1,0.578-0.1h4.077c0.197,0,0.367,0.064,0.511,0.197c0.141,0.13,0.213,0.306,0.213,0.527
		c-0.023,0.371-0.209,0.819-0.561,1.346c-0.352,0.523-0.861,1.04-1.527,1.546c-0.67,0.505-1.508,0.927-2.516,1.269
		C120.988,183.188,119.816,183.355,118.48,183.355z M115.684,172.734h5.559v-0.064c0-1.074-0.24-1.924-0.723-2.549
		c-0.481-0.626-1.174-0.938-2.071-0.938c-0.878,0-1.558,0.312-2.04,0.938c-0.483,0.625-0.725,1.475-0.725,2.549V172.734z"/>
	<path fill="#2F415A" d="M138.014,183.355c-2.588,0-4.648-0.698-6.183-2.104c-1.536-1.402-2.336-3.484-2.401-6.246
		c-0.022-0.396-0.022-0.779,0-1.15c0.088-2.609,0.901-4.639,2.434-6.084c1.535-1.446,3.572-2.172,6.115-2.172
		c1.931,0,3.531,0.385,4.801,1.149c1.272,0.771,2.221,1.815,2.845,3.142c0.627,1.325,0.938,2.823,0.938,4.488v0.791
		c0,0.24-0.078,0.438-0.229,0.594c-0.154,0.15-0.352,0.229-0.593,0.229h-10.523v0.229c0.021,0.965,0.263,1.78,0.722,2.451
		c0.463,0.667,1.142,1.002,2.041,1.002c0.636,0,1.136-0.143,1.498-0.429c0.361-0.286,0.629-0.536,0.807-0.757
		c0.197-0.217,0.354-0.36,0.474-0.426c0.121-0.068,0.313-0.1,0.578-0.1h4.075c0.199,0,0.367,0.064,0.511,0.197
		c0.142,0.13,0.214,0.306,0.214,0.527c-0.021,0.371-0.207,0.819-0.56,1.346c-0.353,0.523-0.859,1.04-1.529,1.546
		c-0.668,0.505-1.507,0.927-2.514,1.269C140.523,183.188,139.352,183.355,138.014,183.355z M135.218,172.734h5.558v-0.064
		c0-1.074-0.239-1.924-0.723-2.549c-0.482-0.626-1.174-0.938-2.074-0.938c-0.875,0-1.556,0.312-2.039,0.938
		c-0.48,0.625-0.723,1.475-0.723,2.549L135.218,172.734L135.218,172.734z"/>
	<path fill="#2F415A" d="M150.477,183.027c-0.24,0-0.438-0.076-0.592-0.229s-0.23-0.354-0.23-0.594v-15.456
		c0-0.217,0.076-0.408,0.23-0.573c0.153-0.165,0.352-0.249,0.592-0.249h3.782c0.241,0,0.443,0.084,0.608,0.249
		s0.246,0.356,0.246,0.573v1.316c0.57-0.683,1.268-1.205,2.089-1.578c0.823-0.373,1.749-0.562,2.778-0.562h1.449
		c0.238,0,0.437,0.078,0.59,0.232c0.155,0.151,0.231,0.35,0.231,0.59v3.389c0,0.241-0.076,0.44-0.231,0.593
		c-0.153,0.153-0.352,0.229-0.59,0.229h-3.19c-0.897,0-1.595,0.248-2.091,0.74c-0.491,0.493-0.737,1.188-0.737,2.086v8.419
		c0,0.24-0.081,0.439-0.247,0.594c-0.165,0.152-0.368,0.229-0.607,0.229h-4.08V183.027z"/>
</g>
<path fill="#2F415A" d="M131.689,34.694c-2.787-1.723-5.737-3.22-8.782-4.491l-0.066-10.792c-0.001-0.077-0.018-0.148-0.024-0.223
	c-0.008-0.118-0.015-0.237-0.037-0.356c-0.023-0.118-0.063-0.228-0.096-0.341c-0.024-0.072-0.035-0.147-0.064-0.219
	c-0.003-0.012-0.012-0.021-0.016-0.032c-0.049-0.118-0.112-0.226-0.174-0.336c-0.041-0.072-0.074-0.148-0.119-0.217
	c-0.055-0.08-0.123-0.15-0.184-0.225c-0.066-0.083-0.128-0.171-0.204-0.246c-0.057-0.055-0.121-0.1-0.18-0.15
	c-0.093-0.08-0.181-0.164-0.28-0.231c-0.084-0.057-0.178-0.096-0.266-0.145c-0.086-0.047-0.168-0.101-0.258-0.139
	c-0.088-0.038-0.182-0.058-0.271-0.087c-0.104-0.034-0.205-0.073-0.311-0.096c-0.068-0.014-0.141-0.015-0.211-0.024
	c-0.136-0.02-0.271-0.04-0.41-0.042c-0.008,0-0.016-0.003-0.025-0.003c-0.006,0-0.012,0-0.02,0c-0.073,0-0.143,0.017-0.215,0.023
	c-0.121,0.009-0.242,0.015-0.365,0.04c-0.118,0.022-0.229,0.061-0.344,0.098c-0.07,0.023-0.145,0.034-0.215,0.061l-18.255,7.265
	l-3.308-8.315l-0.001-0.001c-0.004-0.012-0.013-0.022-0.018-0.035c-0.159-0.385-0.384-0.725-0.661-1.005
	c-0.858-0.87-2.182-1.191-3.389-0.711L41.25,34.292c-1.606,0.639-2.391,2.46-1.751,4.067l6.948,17.451
	c-14.163,24.132-10.353,54.476,9.531,74.325c3.306,3.307,7.009,6.238,11.005,8.713c10.072,6.262,21.302,9.319,32.444,9.319
	c15.796-0.001,31.413-6.147,43.276-18.032c3.306-3.305,6.238-7.009,8.712-11.005C169.252,90.423,160.406,52.548,131.689,34.694z
	 M116.605,24.036l0.053,8.387c0,0.009,0,0.017,0,0.026l0.063,9.705c0,0.06,0.014,0.116,0.018,0.176
	c0.009,0.142,0.017,0.285,0.046,0.425c0.021,0.103,0.057,0.197,0.086,0.295c0.03,0.095,0.052,0.193,0.091,0.286
	c0.046,0.113,0.109,0.217,0.17,0.324c0.04,0.07,0.072,0.145,0.118,0.212c0.106,0.162,0.231,0.312,0.367,0.45
	c0.007,0.007,0.012,0.018,0.021,0.026l0.002,0.001c0.002,0.004,0.006,0.008,0.01,0.011l13.315,13.315L100.18,69.934l11.88-11.247
	c0.006-0.006,0.012-0.012,0.016-0.018c0.105-0.101,0.193-0.213,0.283-0.326c0.039-0.052,0.088-0.098,0.125-0.151
	c0.002-0.005,0.008-0.009,0.012-0.014c0.02-0.03,0.033-0.065,0.052-0.098c0.035-0.055,0.063-0.113,0.095-0.171
	c0.047-0.084,0.102-0.164,0.139-0.252c0.001-0.001,0.003-0.003,0.003-0.005c0.032-0.073,0.049-0.153,0.073-0.229
	c0.039-0.112,0.082-0.222,0.108-0.336c0-0.002,0.001-0.005,0.001-0.006c0.023-0.104,0.026-0.211,0.038-0.318
	c0.011-0.09,0.029-0.179,0.032-0.269c0.003-0.098-0.012-0.196-0.02-0.294c-0.008-0.105-0.008-0.211-0.024-0.315
	c-0.001-0.006-0.001-0.012-0.001-0.018c-0.012-0.064-0.04-0.127-0.055-0.191c-0.03-0.131-0.062-0.265-0.111-0.393
	c-0.006-0.009-0.006-0.017-0.008-0.026l-10.205-25.651L116.605,24.036z M92.326,20.696l3.294,8.28
	c0.005,0.01,0.005,0.023,0.01,0.035c0.003,0.007,0.009,0.014,0.012,0.021l10.199,25.63L60,72.921L46.476,38.953L92.326,20.696z
	 M49.486,63.446l19.579,49.173l-10.807,10.807C43.43,106.877,40.1,83.355,49.486,63.446z M99.374,111.684l-14.419-6.099
	l14.384-14.384l14.654,14.654L99.374,111.684z M146.093,115.83c-1.671,2.697-3.571,5.24-5.669,7.6l-18.621-18.621
	c-0.003-0.002-0.008-0.008-0.012-0.011l-20.236-20.239c-0.611-0.612-1.414-0.917-2.215-0.917c-0.801,0-1.604,0.306-2.214,0.917
	l-19.849,19.849c-0.004,0.004-0.007,0.007-0.01,0.01l-3.379,3.38l-11.57-29.059l17.636-7.024l3.282,8.26
	c0.002,0.005,0.005,0.011,0.007,0.016l0.02,0.047c0,0.001,0,0.003,0,0.004c0.008,0.02,0.024,0.035,0.032,0.055
	c0.099,0.235,0.233,0.456,0.392,0.667c0.02,0.026,0.03,0.06,0.05,0.084c0.004,0.006,0.006,0.013,0.011,0.019
	c0.019,0.023,0.045,0.037,0.064,0.06c0.032,0.035,0.053,0.075,0.086,0.11c0.161,0.169,0.337,0.315,0.523,0.44
	c0.026,0.017,0.055,0.027,0.082,0.044c0.209,0.133,0.429,0.232,0.658,0.312c0.069,0.023,0.138,0.044,0.208,0.063
	c0.254,0.068,0.513,0.113,0.774,0.116c0.01,0,0.02,0.004,0.03,0.004c0.256,0,0.514-0.044,0.77-0.11
	c0.128-0.032,0.256-0.063,0.379-0.11c0.003-0.001,0.006-0.001,0.008-0.003l50.37-20.059c0.003-0.001,0.005-0.003,0.008-0.004
	c0.168-0.066,0.327-0.154,0.485-0.251c0.022-0.015,0.05-0.024,0.072-0.038c0.004-0.003,0.008-0.007,0.014-0.012
	c0.173-0.115,0.33-0.243,0.474-0.387c0.001-0.001,0.001-0.001,0.004-0.003c0.024-0.026,0.042-0.055,0.066-0.081
	c0.114-0.124,0.225-0.251,0.319-0.39c0.055-0.084,0.094-0.173,0.141-0.26c0.049-0.09,0.104-0.178,0.144-0.272
	c0.044-0.099,0.067-0.203,0.099-0.306c0.027-0.092,0.062-0.179,0.082-0.272c0.02-0.101,0.024-0.201,0.035-0.301
	c0.012-0.101,0.028-0.201,0.029-0.303c0-0.107-0.015-0.213-0.023-0.32c-0.01-0.095-0.012-0.188-0.028-0.283
	c-0.03-0.161-0.079-0.315-0.134-0.471c-0.016-0.038-0.02-0.076-0.034-0.115c0-0.001-0.003-0.003-0.003-0.006
	c-0.074-0.184-0.167-0.361-0.275-0.531c-0.006-0.007-0.009-0.018-0.015-0.026c-0.007-0.011-0.017-0.019-0.021-0.029
	c-0.113-0.166-0.24-0.32-0.377-0.459c-0.002-0.001-0.003-0.003-0.003-0.004l-15.782-15.782l-0.023-3.754
	c1.87,0.887,3.691,1.862,5.439,2.942C154.167,56.043,162.109,90.051,146.093,115.83z"/>
</svg>
