<?xml version="1.0" encoding="utf-8"?>
<!-- Generator: Adobe Illustrator 15.1.0, SVG Export Plug-In . SVG Version: 6.00 Build 0)  -->
<!DOCTYPE svg PUBLIC "-//W3C//DTD SVG 1.1//EN" "http://www.w3.org/Graphics/SVG/1.1/DTD/svg11.dtd">
<svg version="1.1" id="Layer_1" xmlns="http://www.w3.org/2000/svg" xmlns:xlink="http://www.w3.org/1999/xlink" x="0px" y="0px"
	 width="180px" height="180px" viewBox="0 0 180 180" enable-background="new 0 0 180 180" xml:space="preserve">
<path fill="#FFFFFF" d="M119.922,43.527c27.275,16.957,35.667,52.829,18.71,80.12c-2.396,3.867-5.183,7.359-8.267,10.443
	l-0.016-0.016l-20.904-20.902l-20.229-20.23l-19.885,19.886l-6.718,6.718l-14.482-36.39l23.455-9.331l4.461,11.228l50.373-20.059
	l-16.69-16.691l-0.064-9.816C113.234,39.831,116.682,41.522,119.922,43.527z"/>
<polygon fill="#E85656" points="126.421,64.993 76.048,85.052 99.786,62.583 88.419,34.022 109.589,25.599 109.665,38.485 
	109.729,48.302 "/>
<polygon fill="#FFFFFF" points="109.445,113.173 89.217,121.234 69.332,112.827 89.217,92.941 "/>
<polygon fill="#E85656" points="99.786,62.583 71.587,73.824 48.132,83.155 39.802,62.253 32.286,43.371 83.956,22.796 
	88.419,34.022 "/>
<path fill="#FFFFFF" d="M48.132,83.155l14.482,36.39l-14.53,14.53l-0.015,0.016c-18.712-18.68-22.83-48.414-8.268-71.838
	L48.132,83.155z"/>
<path fill="#2F415A" d="M121.568,40.863c-2.787-1.724-5.738-3.22-8.782-4.491l-0.065-10.791c-0.003-0.077-0.019-0.148-0.025-0.224
	c-0.008-0.118-0.014-0.237-0.037-0.356c-0.023-0.117-0.063-0.229-0.096-0.341c-0.025-0.071-0.035-0.147-0.064-0.219
	c-0.004-0.013-0.014-0.021-0.016-0.032c-0.049-0.117-0.113-0.227-0.174-0.336c-0.043-0.072-0.074-0.148-0.119-0.217
	c-0.057-0.08-0.123-0.15-0.185-0.226c-0.067-0.083-0.129-0.171-0.204-0.246c-0.057-0.056-0.119-0.1-0.181-0.149
	c-0.093-0.08-0.181-0.164-0.279-0.231c-0.084-0.057-0.178-0.097-0.266-0.146c-0.087-0.047-0.169-0.101-0.259-0.139
	c-0.088-0.038-0.182-0.059-0.271-0.088c-0.104-0.033-0.205-0.072-0.311-0.096c-0.068-0.014-0.142-0.016-0.211-0.024
	c-0.138-0.021-0.271-0.04-0.41-0.042c-0.01,0-0.018-0.002-0.025-0.002c-0.007,0-0.013,0-0.021,0c-0.072,0-0.142,0.017-0.215,0.022
	c-0.121,0.009-0.242,0.015-0.363,0.04c-0.119,0.022-0.23,0.061-0.346,0.098c-0.07,0.023-0.146,0.033-0.216,0.061l-18.255,7.266
	l-3.308-8.315l-0.002-0.001c-0.004-0.013-0.012-0.023-0.018-0.035c-0.159-0.386-0.384-0.726-0.66-1.006
	c-0.858-0.869-2.183-1.19-3.389-0.711l-51.67,20.576c-1.607,0.639-2.391,2.46-1.752,4.066l6.947,17.451
	c-14.162,24.133-10.353,54.477,9.531,74.326c3.307,3.305,7.01,6.237,11.005,8.713c10.071,6.262,21.302,9.318,32.444,9.318
	c15.796-0.001,31.413-6.148,43.275-18.031c3.307-3.306,6.237-7.01,8.713-11.006C159.13,96.592,150.284,58.717,121.568,40.863z
	 M106.484,30.204l0.052,8.387c0,0.01,0,0.018,0,0.026l0.062,9.705c0,0.06,0.016,0.116,0.02,0.176
	c0.009,0.142,0.017,0.284,0.045,0.425c0.021,0.104,0.057,0.197,0.086,0.295c0.031,0.096,0.053,0.193,0.092,0.287
	c0.047,0.112,0.11,0.217,0.17,0.324c0.039,0.07,0.072,0.145,0.117,0.212c0.107,0.162,0.23,0.312,0.367,0.45
	c0.008,0.007,0.013,0.018,0.021,0.025l0.002,0.002c0.002,0.004,0.008,0.008,0.01,0.01l13.315,13.315l-30.785,12.26l11.881-11.246
	c0.006-0.006,0.011-0.013,0.016-0.019c0.105-0.101,0.193-0.213,0.283-0.325c0.039-0.053,0.088-0.099,0.125-0.152
	c0.003-0.004,0.008-0.009,0.012-0.014c0.02-0.03,0.033-0.065,0.053-0.098c0.035-0.055,0.063-0.113,0.094-0.172
	c0.047-0.084,0.103-0.163,0.14-0.252c0.001-0.001,0.002-0.003,0.002-0.004c0.032-0.074,0.049-0.153,0.073-0.229
	c0.039-0.112,0.082-0.222,0.109-0.337c0-0.002,0-0.004,0-0.006c0.023-0.104,0.026-0.211,0.039-0.318
	c0.01-0.09,0.029-0.179,0.031-0.269c0.004-0.099-0.012-0.196-0.02-0.294c-0.008-0.105-0.008-0.211-0.024-0.314
	c-0.001-0.006-0.001-0.013-0.001-0.019c-0.014-0.064-0.04-0.127-0.057-0.191c-0.029-0.132-0.062-0.265-0.11-0.394
	c-0.005-0.008-0.005-0.016-0.009-0.025L92.49,35.773L106.484,30.204z M82.204,26.864l3.295,8.281c0.004,0.01,0.005,0.022,0.01,0.035
	c0.003,0.007,0.009,0.014,0.012,0.021l10.2,25.63l-45.843,18.26L36.354,45.122L82.204,26.864z M39.364,69.614l19.578,49.174
	l-10.807,10.808C33.308,113.046,29.978,89.524,39.364,69.614z M89.252,117.852l-14.419-6.098L89.217,97.37l14.654,14.653
	L89.252,117.852z M135.971,121.999c-1.671,2.696-3.57,5.241-5.669,7.601l-18.62-18.621c-0.005-0.004-0.009-0.008-0.014-0.012
	L91.432,90.729c-0.611-0.611-1.413-0.917-2.215-0.917c-0.802,0-1.604,0.306-2.214,0.917l-19.85,19.85
	c-0.004,0.004-0.006,0.007-0.01,0.01l-3.379,3.38l-11.57-29.059l17.637-7.024l3.281,8.26c0.002,0.005,0.005,0.011,0.007,0.016
	l0.02,0.047c0,0.002,0,0.004,0.001,0.005c0.008,0.021,0.023,0.035,0.031,0.056c0.1,0.234,0.233,0.455,0.393,0.666
	c0.02,0.026,0.029,0.06,0.05,0.084c0.005,0.006,0.006,0.013,0.011,0.019c0.02,0.022,0.045,0.036,0.064,0.06
	c0.031,0.035,0.053,0.075,0.086,0.11c0.16,0.169,0.336,0.315,0.522,0.44c0.026,0.017,0.055,0.027,0.081,0.044
	c0.209,0.134,0.43,0.232,0.658,0.312c0.069,0.023,0.138,0.045,0.208,0.063c0.255,0.068,0.513,0.112,0.774,0.116
	c0.01,0,0.02,0.004,0.03,0.004c0.257,0,0.515-0.044,0.771-0.109c0.127-0.032,0.256-0.062,0.379-0.11
	c0.003-0.001,0.006-0.001,0.008-0.003l50.371-20.059c0.004-0.002,0.006-0.003,0.008-0.004c0.168-0.066,0.328-0.154,0.485-0.252
	c0.021-0.015,0.05-0.023,0.07-0.037c0.006-0.004,0.01-0.008,0.014-0.013c0.175-0.114,0.33-0.243,0.476-0.387
	c0.002-0.001,0.002-0.001,0.004-0.003c0.025-0.026,0.042-0.055,0.066-0.081c0.114-0.124,0.225-0.251,0.319-0.39
	c0.056-0.084,0.095-0.174,0.141-0.26c0.05-0.091,0.104-0.178,0.145-0.273c0.043-0.099,0.067-0.203,0.098-0.305
	c0.027-0.092,0.063-0.18,0.082-0.272c0.02-0.101,0.024-0.2,0.035-0.302c0.012-0.101,0.028-0.2,0.029-0.303
	c0-0.107-0.015-0.213-0.023-0.319c-0.01-0.095-0.012-0.188-0.027-0.282c-0.031-0.161-0.08-0.315-0.135-0.472
	c-0.016-0.038-0.02-0.076-0.033-0.114c0-0.002-0.004-0.004-0.004-0.006c-0.073-0.184-0.166-0.361-0.275-0.531
	c-0.006-0.008-0.009-0.018-0.015-0.025c-0.007-0.012-0.017-0.02-0.021-0.029c-0.113-0.166-0.24-0.32-0.377-0.459
	c-0.002-0.002-0.004-0.003-0.004-0.004l-15.781-15.782l-0.022-3.754c1.869,0.888,3.69,1.862,5.438,2.942
	C144.044,62.212,151.986,96.221,135.971,121.999z"/>
</svg>
